<?xml version="1.0" standalone="no"?><svg xmlns="http://www.w3.org/2000/svg" viewBox="0 0 1440 320"><path fill="#0099ff" fill-opacity="1" d="M0,64L21.8,58.7C43.6,53,87,43,131,58.7C174.5,75,218,117,262,144C305.5,171,349,181,393,160C436.4,139,480,85,524,85.3C567.3,85,611,139,655,165.3C698.2,192,742,192,785,197.3C829.1,203,873,213,916,186.7C960,160,1004,96,1047,101.3C1090.9,107,1135,181,1178,186.7C1221.8,192,1265,128,1309,101.3C1352.7,75,1396,85,1418,90.7L1440,96L1440,0L1418.2,0C1396.4,0,1353,0,1309,0C1265.5,0,1222,0,1178,0C1134.5,0,1091,0,1047,0C1003.6,0,960,0,916,0C872.7,0,829,0,785,0C741.8,0,698,0,655,0C610.9,0,567,0,524,0C480,0,436,0,393,0C349.1,0,305,0,262,0C218.2,0,175,0,131,0C87.3,0,44,0,22,0L0,0Z"></path></svg>